<?xml version="1.0" encoding="UTF-8" standalone="no"?>
<!-- Created with Inkscape (http://www.inkscape.org/) -->

<svg
   xmlns:dc="http://purl.org/dc/elements/1.1/"
   xmlns:cc="http://creativecommons.org/ns#"
   xmlns:rdf="http://www.w3.org/1999/02/22-rdf-syntax-ns#"
   xmlns:svg="http://www.w3.org/2000/svg"
   xmlns="http://www.w3.org/2000/svg"
   xmlns:sodipodi="http://sodipodi.sourceforge.net/DTD/sodipodi-0.dtd"
   xmlns:inkscape="http://www.inkscape.org/namespaces/inkscape"
   width="38.099998mm"
   height="10.866508mm"
   viewBox="0 0 38.099998 10.866508"
   version="1.1"
   id="svg8"
   inkscape:version="0.92.3 (2405546, 2018-03-11)"
   sodipodi:docname="SPIE.svg">
  <defs
     id="defs2" />
  <sodipodi:namedview
     id="base"
     pagecolor="#ffffff"
     bordercolor="#666666"
     borderopacity="1.0"
     inkscape:pageopacity="0.0"
     inkscape:pageshadow="2"
     inkscape:zoom="3.959798"
     inkscape:cx="75.152124"
     inkscape:cy="48.095332"
     inkscape:document-units="mm"
     inkscape:current-layer="layer1"
     showgrid="false"
     fit-margin-top="0"
     fit-margin-left="0"
     fit-margin-right="0"
     fit-margin-bottom="0"
     inkscape:window-width="1525"
     inkscape:window-height="1368"
     inkscape:window-x="239"
     inkscape:window-y="0"
     inkscape:window-maximized="0" />
  <metadata
     id="metadata5">
    <rdf:RDF>
      <cc:Work
         rdf:about="">
        <dc:format>image/svg+xml</dc:format>
        <dc:type
           rdf:resource="http://purl.org/dc/dcmitype/StillImage" />
        <dc:title></dc:title>
      </cc:Work>
    </rdf:RDF>
  </metadata>
  <g
     inkscape:label="Layer 1"
     inkscape:groupmode="layer"
     id="layer1"
     transform="translate(51.555952,-143.40008)">
    <g
       transform="matrix(0.35277777,0,0,-0.35277777,-51.555952,154.26659)"
       inkscape:label="ink_ext_XXXXXX"
       id="g4526">
      <g
         transform="scale(0.1)"
         id="g4528">
        <path
           inkscape:connector-curvature="0"
           id="path4530"
           style="fill:#ed1c24;fill-opacity:1;fill-rule:nonzero;stroke:none"
           d="m 1080,50.5078 c 0,27.4883 -22.35,49.8632 -49.84,49.8632 -28.16,0 -50.558,-22.3749 -50.558,-49.8632 C 979.602,22.3711 1002,0 1030.16,0 1057.65,0 1080,22.3711 1080,50.5078" />
        <path
           inkscape:connector-curvature="0"
           id="path4532"
           style="fill:#231f20;fill-opacity:1;fill-rule:nonzero;stroke:none"
           d="M 696.121,9.02344 H 934.648 V 78.2891 H 776.711 V 124.941 H 917.813 V 189.16 H 776.711 v 45.008 h 155.84 v 68.828 H 696.121 V 9.02344" />
        <path
           inkscape:connector-curvature="0"
           id="path4534"
           style="fill:#231f20;fill-opacity:1;fill-rule:nonzero;stroke:none"
           d="m 137.75,3.97266 c 71.41,0 118.848,35.67574 118.848,95.73434 v 0.848 c 0,55.031 -41.973,76.867 -109.164,91.582 -41.2,9.242 -51.2895,15.129 -51.2895,28.586 v 0.84 c 0,10.917 9.6685,18.894 29.4185,18.894 26.074,0 55.488,-9.648 82.351,-28.992 l 40.715,57.547 c -31.926,25.605 -70.965,39.015 -120.969,39.015 -70.5545,0 -113.7967,-39.433 -113.7967,-94.035 v -0.847 c 0,-60.09 48.2773,-77.715 110.8827,-92.024 40.32,-9.637 50.004,-15.965 50.004,-28.5624 v -0.832 c 0,-12.6055 -11.781,-20.1641 -34.062,-20.1641 -34.024,0 -65.9458,12.168 -95.3286,35.2815 L 0,52.6563 C 36.5313,20.3516 85.6641,3.97266 137.75,3.97266" />
        <path
           inkscape:connector-curvature="0"
           id="path4536"
           style="fill:#231f20;fill-opacity:1;fill-rule:nonzero;stroke:none"
           d="M 286.328,9.02344 H 367.75 V 93.0469 h 40.77 c 72.695,0 125.988,36.5121 125.988,106.2301 v 0.828 c 0,64.688 -47.832,102.891 -121.789,102.891 H 286.328 Z M 367.75,156.836 v 77.742 h 38.672 c 29.008,0 47.09,-13.015 47.09,-38.262 v -0.828 c 0,-23.117 -18.082,-38.652 -46.66,-38.652 H 367.75" />
        <path
           inkscape:connector-curvature="0"
           id="path4538"
           style="fill:#231f20;fill-opacity:1;fill-rule:nonzero;stroke:none"
           d="m 563.523,9.04297 h 81.418 V 302.996 H 563.523 V 9.04297" />
      </g>
    </g>
  </g>
</svg>
